# xmcd CD database file
#
# Track frame offsets:
#	150
#	19180
#	36442
#	54007
#	70935
#	88755
#	106527
#	126857
#	149517
#	167037
#	188345
#	210352
#	225247
#	242465
#
# Disc length: 3469 seconds
#
# Revision: 0
# Processed by: cddbd v1.5.2PL0 Copyright (c) Steve Scherf et al.
# Submitted via: CDex 1.70beta2
#
DISCID=a90d8b0e
DTITLE=Good Morning Blues - Before We Think
DYEAR=1996
DGENRE=Jazz
TTITLE0=Start It Up
TTITLE1=Good Rockin' Mama
TTITLE2=Daydream
TTITLE3=Reconcider Baby
TTITLE4=Let It Snow
TTITLE5=Hard Times Got Me
TTITLE6=One Way Out
TTITLE7=Funny
TTITLE8=Before We Think
TTITLE9=Don't Get Around Any More
TTITLE10=Isfahan
TTITLE11=You Didn't Have To Be So Nice
TTITLE12=Boogie Man
TTITLE13=Good Morning Blues
EXTD=YEAR: 1996
EXTT0=
EXTT1=
EXTT2=
EXTT3=
EXTT4=
EXTT5=
EXTT6=
EXTT7=
EXTT8=
EXTT9=
EXTT10=
EXTT11=
EXTT12=
EXTT13=
PLAYORDER=
